<svg width="580" height="90" viewBox="0 0 580 90" fill="none" xmlns="http://www.w3.org/2000/svg">
<g clip-path="url(#clip0_59_163)">
<path d="M393.127 22.6907C392.92 17.7679 392.278 18.5311 399.543 16.6841C399.543 23.0341 399.632 29.3155 399.447 35.5893C399.418 36.4288 398.148 37.3981 397.262 38.0011C396.073 38.8254 394.692 39.352 393.127 40.1457V29.5827C393.127 28.5599 393.127 27.5448 393.134 26.5221C393.134 25.7589 393.142 24.9956 393.142 24.2401C393.134 23.7211 393.134 23.2097 393.127 22.6907Z" fill="white"/>
<path d="M408.61 5.86923C407.672 3.96879 406.986 1.4883 408.861 0C410.257 2.32022 411.534 4.44963 412.819 6.57904C414.347 5.25102 415.875 3.93063 417.167 2.80868C418.297 3.86194 420.438 6.6401 421.081 6.31191C423.03 5.30444 424.396 3.09871 425.658 1.7249C426.286 6.62483 423.842 9.05953 418.747 7.72388C417.728 7.44912 416.51 7.89942 415.395 8.06733C412.767 8.47185 409.991 8.65502 408.61 5.86923Z" fill="white"/>
<path d="M457.229 71.7055C454.224 75.8956 449.558 75.9109 446.162 71.8353C445.962 71.5071 445.763 71.1712 445.571 70.8431C445.571 54.5328 445.571 38.2226 445.571 21.9124V18.3405C447.114 18.0123 448.502 17.7223 449.89 17.4246C452.504 16.2493 452.046 18.455 452.076 19.722C452.142 23.2633 452.032 26.8124 451.995 30.3537V45.6107C452.002 47.1448 452.002 48.6789 452.009 50.2053C452.083 57.3034 452.157 64.3861 452.238 71.4765C452.216 71.4765 452.194 71.4689 452.172 71.4689L452.246 71.5529V71.4765C452.94 71.5605 453.626 71.6292 454.32 71.7055H457.229Z" fill="white"/>
<path d="M393.171 44.084C393.363 43.794 393.563 43.5116 393.762 43.2292C395.423 41.7943 397.085 40.3518 399.174 38.543C400.223 47.6178 399.602 49.1595 395.305 49.5869C395.047 49.7472 394.788 49.9151 394.53 50.083C391.702 48.6558 393.511 46.1066 393.171 44.084Z" fill="white"/>
<path d="M50.3989 85.7413C48.3167 87.5654 46.8401 89.7711 45.7695 89.5727C44.2707 89.2979 43.0819 87.2372 41.7677 85.9397C42.9933 84.7033 44.123 82.6502 45.4889 82.467C46.7219 82.2991 48.206 84.1843 50.3989 85.7413Z" fill="white"/>
<path d="M57.6493 80.9099C59.3475 83.0241 61.4148 84.5124 61.245 85.6496C61.0161 87.1913 59.0817 88.4659 57.8782 89.8473C56.6452 88.5193 54.6959 87.3287 54.4154 85.8098C54.2013 84.665 56.1209 83.0927 57.6493 80.9099Z" fill="white"/>
<path d="M112.33 67.645C98.5753 70.2095 86.1048 69.1715 78.1233 54.7922C76.6614 57.4635 75.5613 59.4861 74.439 61.5392C76.0412 63.5617 77.4958 65.4011 79.6812 68.164C74.0551 68.2938 69.2781 68.4693 64.4937 68.4998C60.0267 68.5304 59.7462 68.1716 59.7388 63.5083C59.7314 60.3409 59.7388 57.1659 59.7388 53.6932C56.9626 54.6548 55.198 55.2654 53.0938 55.9981V67.8663C47.918 67.1642 42.9785 70.3468 38.2606 67.1565C40.0326 58.3641 34.0004 55.2196 28.3743 51.9072C22.5931 55.3189 16.5166 58.616 18.5765 67.5C14.3459 68.2251 10.2924 70.0721 6.26847 67.0573C5.84024 66.7368 4.33403 67.1947 3.91318 67.7595C2.96811 69.0265 2.39221 70.5834 1.66126 72.026C1.17395 72.7739 0.679269 73.5142 0 74.5522H80.7592C89.8407 74.537 98.9223 74.5217 108.004 74.4988C109.591 72.7129 111.179 70.9269 112.773 69.1333C112.626 68.6372 112.478 68.1411 112.33 67.645ZM27.7245 60.1119C30.7591 59.9135 31.9995 61.1576 32.0733 64.096C32.1545 67.4084 29.8583 68.6067 27.7171 68.2938C26.2922 68.0953 24.2986 65.6835 24.1362 64.0884C23.9442 62.1956 24.749 59.364 27.7245 60.1119Z" fill="white"/>
<path d="M452.245 71.4762V71.5508L452.172 71.4688C452.172 71.4688 452.216 71.4762 452.238 71.4762H452.245Z" fill="white"/>
<path d="M355.228 72.5679L355.169 72.4458C355.169 72.4458 355.191 72.4687 355.199 72.484C355.213 72.5145 355.221 72.5374 355.228 72.5679Z" fill="white"/>
<path d="M578.006 53.8992C574.359 53.7465 573.562 55.7309 573.857 59.0662C574.101 61.8978 573.901 64.7676 573.901 67.7442C569.272 67.7442 565.123 67.8052 560.973 67.6755C560.331 67.6526 559.711 66.7367 559.083 66.2253C559.194 65.9887 559.194 65.7445 559.09 65.5003C559.09 60.4019 559.105 55.3035 559.112 50.1975V46.1448C556.986 46.5417 555.125 46.8927 553.265 47.2438C553.021 47.8468 552.571 48.4574 552.571 49.0679C552.549 54.5327 552.608 59.9974 552.637 65.4621V66.2635C552.527 66.5001 552.534 66.7367 552.652 66.9733C552.371 67.5381 552.091 68.0952 551.81 68.6524C550.585 68.6066 549.344 68.4005 548.141 68.5379C545.845 68.7974 545.062 67.5915 545.018 65.485V49.1595C542.552 50.1441 540.573 50.9302 538.587 51.724C538.557 56.3034 538.528 60.8827 538.498 65.4697C538.417 65.9658 538.336 66.4696 538.254 66.9733C536.121 67.4999 533.994 68.0342 531.86 68.5608C531.344 68.0342 530.819 67.5076 530.303 66.9809C530.317 66.233 530.332 65.4774 530.347 64.7218V53.2581C528.782 53.8152 527.371 54.3113 525.969 54.8074C525.43 55.2425 524.44 55.6546 524.425 56.0973C524.344 59.2265 524.462 62.3481 524.521 65.4774C524.005 66.3093 523.488 67.1336 522.978 67.9655C522.742 67.935 522.513 67.8968 522.277 67.8663H510.412C509.902 67.5763 509.393 67.2786 508.883 66.9886C508.824 66.7978 508.743 66.6146 508.721 66.4238C508.721 66.378 508.913 66.3093 509.016 66.2559C509.223 65.7445 509.43 65.2484 509.629 64.737C510.035 61.2262 508.61 58.5244 506.152 56.2728C505.864 56.021 505.583 55.7691 505.295 55.5172L504.498 54.9219C504.025 54.6548 503.553 54.3953 503.08 54.1282C498.421 51.8232 494.626 53.1131 490.898 58.2649L490.927 58.3259C490.573 59.1807 490.218 60.0355 489.871 60.8904C489.805 61.3865 489.746 61.8826 489.687 62.371C489.465 64.2409 489.251 66.1109 489.03 67.9731C485.596 67.9197 482.163 67.8739 478.722 67.8205C477.844 67.2786 476.958 66.7367 475.85 66.0498C474.44 68.5303 473.207 70.6902 471.981 72.8425C471.575 73.3463 471.177 73.85 470.623 74.5445H475.725C479.431 74.5522 483.145 74.5522 486.859 74.5522C489.303 74.5522 491.754 74.5522 494.198 74.5445C500.363 74.5522 506.536 74.5522 512.701 74.5522H516.333C518.319 74.5522 520.313 74.5445 522.299 74.5445H529.638C530.879 74.5598 532.112 74.5674 533.345 74.5751H534.821C542.463 74.5674 550.097 74.5598 557.739 74.5522H563.609C567.308 74.5522 571.014 74.5522 574.714 74.5445C576.249 74.3919 577.778 74.2316 579.306 74.0713L579.35 74.1248C579.564 73.5447 579.778 72.957 580 72.377V53.2428C579.35 53.4718 578.664 53.9297 578.006 53.8992ZM500.119 68.6829C499.876 68.6829 499.625 68.6753 499.381 68.6753C495.837 68.4234 495.084 66.1338 495.505 62.9969C495.889 60.0737 498.178 59.6463 500.068 60.295C501.448 60.7606 502.94 62.5313 503.339 64.0196C503.966 66.3856 502.453 68.0418 500.119 68.6829Z" fill="white"/>
<path d="M192.248 82.5204C188.438 78.7882 188.32 73.4074 191.569 67.7824C193.119 65.6378 194.662 63.4931 196.73 60.6157C196.944 63.5618 197.069 65.3325 197.217 67.3779C196.309 67.5077 195.127 67.6832 193.954 67.8511C192.883 70.1332 191.207 72.3389 190.912 74.7278C190.616 77.0938 191.694 79.6507 192.248 82.5204Z" fill="white"/>
<path d="M295.689 68.4998C294.825 68.2861 293.858 67.6985 293.105 67.9122C285.596 70.0416 279.379 67.5 273.782 62.4551C271.508 60.4096 269.212 58.3947 266.968 56.4027C263.497 60.7454 263.542 61.9284 267.78 66.1796C268.503 66.9047 269.493 67.6527 267.521 67.9351C266.244 67.9122 264.967 67.8893 263.682 67.8664H255.162C253.39 67.874 251.618 67.8816 249.853 67.8893C249.595 67.2787 249.004 66.5841 249.122 66.0804C250.237 61.4552 248.125 58.181 244.921 55.5097C243.237 54.0977 241.229 53.0979 239.538 52.0217C233.167 55.0975 227.681 58.7839 229.32 67.3779C228.39 67.6756 227.725 68.0648 227.053 68.0648C224.078 68.0572 220.947 68.4617 218.171 67.6298C216.768 67.21 216.015 64.4776 214.967 62.7909C213.874 61.0278 212.781 59.2571 211.319 56.8988C209.961 59.3182 208.957 61.1194 207.989 62.8519C211.688 68.1488 213.866 73.583 211.415 79.9865C206.299 87.8401 199.498 85.413 192.477 82.5814C193.355 86.2831 195.511 87.6264 198.096 88.5041C205.516 92.5187 216.288 86.0007 217.388 77.1014C217.506 76.1856 218.341 75.3765 218.843 74.5141C231.372 74.5294 243.902 74.537 256.432 74.5523H291.192C293.142 74.5523 295.083 74.5523 297.033 74.5523C297.956 73.6669 298.878 72.7892 299.801 71.9038C298.428 70.7666 297.055 69.6294 295.689 68.4922V68.4998ZM239.25 68.4998C236.223 68.6525 235.928 66.2254 235.743 64.8745C235.61 61.1576 236.895 60.0051 239.531 60.0891C242.034 60.173 243.149 61.6079 243.119 63.9281C243.082 66.4391 241.894 68.3701 239.25 68.4998Z" fill="white"/>
<path d="M199.72 45.6105C200.938 44.3588 202.06 42.2675 203.412 42.092C204.637 41.9394 206.114 43.8703 208.299 45.4884C206.254 47.2591 204.77 49.4266 203.744 49.2206C202.23 48.9 201.042 46.9003 199.72 45.6105Z" fill="white"/>
<path d="M576.308 85.1077C575.001 87.9317 573.554 90.6793 570.298 89.2215C569.287 88.7712 568.452 85.5733 568.977 84.2377C569.996 81.6503 572.454 82.0396 576.308 85.1077Z" fill="white"/>
<path d="M452.245 71.4762V71.5508C452.245 71.5508 452.201 71.4986 452.179 71.4688C452.201 71.4688 452.223 71.4762 452.245 71.4762Z" fill="white"/>
<path d="M509.016 66.2559C509.053 66.5154 509.016 66.7596 508.883 66.9886C508.824 66.7978 508.743 66.6146 508.721 66.4238C508.721 66.378 508.913 66.3093 509.016 66.2559Z" fill="white"/>
<path d="M440.964 63.9738V22.6831C440.934 21.1795 440.912 19.6836 440.883 18.18C437.08 16.2567 434.54 17.6915 434.526 21.8664C434.467 37.1844 434.452 52.4948 434.422 67.8128C429.726 67.851 425.031 67.8891 420.335 67.9349C420.084 67.3778 419.833 66.8206 419.574 66.2635C419.582 59.8829 419.589 53.5099 419.596 47.1369V28.8271C419.596 25.2551 419.596 21.6832 419.596 18.1113C419.338 17.7984 419.08 17.4931 418.821 17.1802C418.356 17.2718 417.891 17.3634 417.418 17.4549C417.182 17.4855 416.946 17.516 416.71 17.5465C415.942 17.8594 415.174 18.1724 414.406 18.4777C414.199 19.882 413.992 21.2863 413.778 22.6907C413.786 36.9554 413.793 51.2278 413.801 65.4926C413.801 65.7368 413.793 65.9811 413.786 66.2253C413.394 66.7519 413.033 67.6907 412.597 67.7365C409.06 68.0723 405.509 68.2402 401.958 68.4616C401.013 68.1028 400.067 67.7441 399.359 67.477V51.0523C397.941 51.7545 396.575 52.4261 395.209 53.1054C394.493 53.1817 393.777 53.258 393.061 53.3343C390.602 53.5938 388.143 53.861 385.692 54.1205C383.92 55.5096 381.639 56.5475 380.472 58.3488C376.308 64.7981 379.763 72.0182 387.937 74.5063C389.635 74.5216 391.333 74.5292 393.031 74.5445C395.268 74.5445 397.505 74.5521 399.735 74.5521H421.834C423.576 74.5521 425.319 74.5445 427.061 74.5445C428.021 74.5445 428.988 74.5521 429.955 74.5521H438.867C439.103 74.3842 439.332 74.2087 439.568 74.0331C439.568 74.1629 439.568 74.3003 439.576 74.43C440.041 73.4912 440.499 72.5525 440.964 71.6213C440.964 70.5833 440.964 69.5453 440.964 68.5074C440.964 67.7594 440.964 67.0191 440.964 66.2711C440.964 65.7445 440.964 65.2178 440.964 64.6912C441.067 64.4546 441.067 64.2104 440.964 63.9738ZM392.81 64.1798C392.389 65.8513 390.506 68.0952 389.044 68.3013C386.667 68.6371 385.242 66.355 385.352 63.8364C385.463 61.4475 386.674 59.8218 388.904 60.0889C392.049 60.066 393.356 62.0199 392.81 64.1798Z" fill="white"/>
<path d="M439.568 74.4301C439.332 74.4682 439.096 74.514 438.86 74.5522C439.096 74.3843 439.325 74.2087 439.561 74.0332C439.561 74.163 439.561 74.3003 439.568 74.4301Z" fill="white"/>
<path d="M360.47 19.6302C360.374 19.4699 360.264 19.3097 360.205 19.1341C360.19 19.096 360.345 18.9891 360.426 18.9204C360.573 19.1494 360.588 19.386 360.47 19.6302Z" fill="white"/>
<path d="M349.44 72.3694C349.558 72.6289 349.521 72.8655 349.344 73.0716C348.34 73.5982 347.343 74.5523 346.331 74.5828C340.484 74.7278 334.621 74.6515 328.353 74.6515C328.397 80.7573 328.493 86.7945 321.7 89.2215C318.563 90.3511 315.572 90.4809 312.604 88.0767C315.506 85.9473 320.482 88.0767 321.538 83.0318C321.76 81.0016 321.988 78.9714 322.21 76.9488C322.188 75.6742 322.158 74.4073 322.136 73.1403V70.0416C322.158 66.2254 322.18 62.4093 322.203 58.5931C322.454 57.227 320.851 55.1128 323.65 54.7923C325.112 54.3191 326.566 53.8459 328.309 53.2811C328.309 57.1583 328.508 60.7684 328.242 64.3403C328.05 66.9581 329.202 68.1183 331.358 68.2556C335.507 68.5075 339.834 69.5226 343.444 66.2178C343.378 53.6474 343.319 41.077 343.245 28.5066C343.23 26.3467 343.134 24.1868 343.142 22.0268C343.157 18.9129 346.043 16.3255 348.871 16.9972C349.174 17.0735 349.24 18.2336 349.418 18.89C349.44 19.3937 349.462 19.9051 349.484 20.4088C349.469 37.7265 349.455 55.0518 349.44 72.3694Z" fill="white"/>
<path d="M364.672 72.3083C362.206 74.8575 359.429 76.0253 356.077 73.4303C355.789 73.1174 355.494 72.7968 355.199 72.4839C354.808 71.1788 354.409 69.8584 354.003 68.5532C354.003 68.0266 354.003 67.5 354.01 66.981V29.5522C353.995 26.7664 353.981 23.9806 353.966 21.1949C353.995 20.6759 354.025 20.1569 354.054 19.6379C355.73 18.8899 357.406 18.1496 359.082 17.4016C359.533 17.9053 359.976 18.4167 360.426 18.9204C360.345 18.9891 360.19 19.096 360.205 19.1341C360.264 19.3097 360.375 19.47 360.471 19.6302C360.471 20.1569 360.471 20.6759 360.478 21.2025C360.389 21.2712 360.212 21.3628 360.227 21.4009C360.279 21.5841 360.389 21.752 360.478 21.9276C360.471 23.2098 360.471 24.492 360.471 25.7666C360.471 39.001 360.471 52.2354 360.463 65.4698V67.0115C360.463 68.0266 360.456 69.0417 360.448 70.0492C361.836 70.7895 363.217 71.5298 364.672 72.3083Z" fill="white"/>
<path d="M360.477 21.9275C360.389 21.7519 360.278 21.584 360.227 21.4008C360.212 21.3627 360.389 21.2711 360.477 21.2024C360.588 21.439 360.588 21.6832 360.477 21.9275Z" fill="white"/>
<path d="M160.411 69.9958C160.404 71.3391 159.554 72.6748 159.097 74.018C159.097 74.018 159.111 73.9646 159.097 73.9646C158.816 74.1478 158.536 74.3233 158.248 74.4989C155.553 74.5141 152.858 74.5294 150.17 74.5523C148.184 74.5523 146.198 74.5523 144.212 74.5523L143.865 74.621L143.518 74.5447H141.251C140.771 74.5752 140.284 74.6057 139.804 74.6286C139.56 76.0788 139.162 77.5136 139.095 78.9638C138.815 85.1001 134.207 90.0688 128.744 89.878C127.71 89.8398 126.691 89.2826 125.436 88.4889C133.484 86.619 132.31 80.2613 132.502 74.6057V67.0192C132.502 64.4624 132.494 61.898 132.487 59.3335C132.014 56.3569 132.487 54.0825 136.097 54.1207C138.46 52.9987 139.043 54.2275 139.029 56.4256C139.014 59.4938 138.881 62.5925 139.228 65.6301C139.346 66.6605 140.749 68.3472 141.583 68.3549C145.43 68.4083 149.284 68.0114 153.124 67.6603C153.426 67.6298 153.663 66.7063 153.928 66.2026C153.928 50.938 153.943 35.681 153.958 20.4164C154.283 19.7982 154.6 19.18 154.925 18.5542L155.043 18.5084C155.87 18.1497 156.69 17.7986 157.517 17.4475C157.989 17.3559 158.462 17.2719 158.942 17.188C159.451 18.2947 160.411 19.409 160.418 20.5233C160.507 37.0091 160.507 53.5024 160.411 69.9882V69.9958Z" fill="white"/>
<path d="M174.823 73.5371C172.269 73.6592 169.596 74.3079 167.174 73.766C164.125 73.0791 164.073 70.1331 164.095 67.3244C164.206 52.449 164.221 37.5737 164.265 22.6907V18.409C166.362 17.8213 168.414 17.2413 170.718 16.5925V21.9122C170.718 24.2248 170.725 26.5374 170.725 28.8424C170.725 35.4443 170.718 42.0462 170.718 48.6482C170.718 54.2655 170.725 59.8829 170.725 65.5079C170.725 66.2482 170.718 66.9962 170.718 67.7442C170.762 68.7287 170.807 69.7057 170.844 70.6902C171.043 70.9803 171.242 71.2703 171.434 71.5603C172.512 71.9419 173.59 72.3235 174.668 72.7128C174.72 72.9875 174.772 73.2623 174.823 73.5371Z" fill="white"/>
</g>
<defs>
<clipPath id="clip0_59_163">
<rect width="580" height="90" fill="white"/>
</clipPath>
</defs>
</svg>
