<svg width="30" height="30" viewBox="0 0 30 30" fill="none" xmlns="http://www.w3.org/2000/svg">
<path d="M18.8763 1.63275C16.7506 -0.544249 13.2494 -0.544249 11.1237 1.63275L9.9577 2.82682L8.28891 2.80694C5.24642 2.7707 2.7707 5.24642 2.80694 8.28891L2.82682 9.9577L1.63275 11.1237C-0.544249 13.2494 -0.544249 16.7506 1.63275 18.8763L2.82682 20.0423L2.80694 21.7111C2.7707 24.7536 5.24642 27.2293 8.28891 27.1931L9.9577 27.1732L11.1237 28.3673C13.2494 30.5442 16.7506 30.5442 18.8763 28.3673L20.0423 27.1732L21.7111 27.1931C24.7536 27.2293 27.2293 24.7536 27.1931 21.7111L27.1732 20.0423L28.3673 18.8763C30.5442 16.7506 30.5442 13.2494 28.3673 11.1237L27.1732 9.9577L27.1931 8.28891C27.2293 5.24642 24.7536 2.7707 21.7111 2.80694L20.0423 2.82682L18.8763 1.63275ZM19.4129 12.8504L13.7879 18.4754C13.6121 18.6512 13.3736 18.75 13.125 18.75C12.8764 18.75 12.6379 18.6512 12.4621 18.4754L9.64959 15.6629C9.28347 15.2968 9.28347 14.7032 9.64959 14.3371C10.0157 13.971 10.6093 13.971 10.9754 14.3371L13.125 16.4867L18.0871 11.5246C18.4532 11.1585 19.0468 11.1585 19.4129 11.5246C19.779 11.8907 19.779 12.4843 19.4129 12.8504Z" fill="white"/>
</svg>
