<svg width="30" height="30" viewBox="0 0 30 30" fill="none" xmlns="http://www.w3.org/2000/svg">
<path d="M12.1875 27.1875V20.615C12.1875 20.1562 12.6562 19.6875 13.125 19.6875H16.875C17.3438 19.6875 17.8125 20.1562 17.8125 20.625V27.1875C17.8125 27.7053 18.2322 28.125 18.75 28.125H26.25C26.7678 28.125 27.1875 27.7053 27.1875 27.1875V14.0625C27.1875 13.8139 27.0887 13.5754 26.9129 13.3996L24.375 10.8617V4.6875C24.375 4.16973 23.9553 3.75 23.4375 3.75H21.5625C21.0447 3.75 20.625 4.16973 20.625 4.6875V7.11167L15.6629 2.14959C15.2968 1.78347 14.7032 1.78347 14.3371 2.14959L3.08709 13.3996C2.91127 13.5754 2.8125 13.8139 2.8125 14.0625V27.1875C2.8125 27.7053 3.23223 28.125 3.75 28.125H11.25C11.7678 28.125 12.1875 27.7053 12.1875 27.1875Z" fill="white"/>
</svg>
