<svg width="700" height="700" viewBox="0 0 700 700" fill="none" xmlns="http://www.w3.org/2000/svg">
<g clip-path="url(#clip0_136_76)">
<path d="M149.022 0C159.167 2.27034 169.56 3.75668 179.406 6.92536C220.331 20.1064 249.358 45.5048 258.741 88.2003C267.198 126.714 256.656 160.9 228.904 189.222C215.615 202.779 201.201 215.323 186.77 227.704C174.408 238.304 170.155 251.779 169.824 267.149C169.725 272.163 169.824 277.194 169.361 282.176C168.269 293.919 160.772 300.763 148.857 300.861C135.237 300.975 121.617 301.041 108.014 300.796C98.0188 300.616 89.7444 293.495 89.4796 284.038C88.8342 261.906 90.1747 239.905 97.7375 218.737C104.622 199.529 117.712 184.633 132.341 170.896C142.039 161.799 151.935 152.913 161.897 144.077C180.614 127.466 178.413 109.695 173.333 97.102C166.928 81.2423 149.85 71.9649 129.958 72.6509C106.326 73.4676 92.6405 84.9826 86.6663 109.14C85.6899 113.109 85.0611 117.176 83.9358 121.112C81.0728 131.239 74.6519 136.433 63.9778 136.596C48.9846 136.841 33.9748 136.89 18.9815 136.563C7.28147 136.302 -0.794373 127.123 0.0330694 115.836C4.10409 61.2012 38.6084 19.4531 92.0116 4.81835C98.929 2.92368 106.012 1.58434 113.012 0C125.01 0 137.024 0 149.022 0Z" fill="#0F52BA"/>
<path d="M387.525 700C321.031 700 254.538 700 188.061 700C169.924 700 163.205 693.271 163.205 675.124C163.205 641.624 163.767 608.125 163.072 574.641C161.848 514.502 208.648 468.637 269.796 469.372C350.356 470.352 430.932 469.552 511.509 469.748C517.565 469.748 520.048 467.951 522.183 462.267C538.996 417.334 556.323 372.581 573.335 327.713C574.659 324.201 575.437 320.249 575.437 316.508C575.553 245.866 575.536 175.241 575.52 104.599C575.52 78.0736 586.889 58.2612 611.05 46.0438C648.103 27.2931 695.83 53.5898 699.04 94.5539C699.586 101.577 699.901 108.65 699.901 115.689C699.967 185.188 699.851 254.686 700.017 324.185C700.05 338.019 697.633 351.119 692.619 364.104C667.763 428.376 643.618 492.909 618.348 557.017C613.516 569.267 611.596 581.142 611.778 593.98C612.159 621.779 611.927 649.579 611.877 677.378C611.861 692.813 604.629 699.967 589.073 699.967C521.885 699.984 454.713 699.967 387.525 699.967V700Z" fill="#0F52BA"/>
<path d="M387.657 155.102C467.207 155.151 532.443 219.455 532.641 298.003C532.84 376.534 466.496 441.932 387.293 441.295C307.229 440.642 242.606 376.517 242.871 297.986C243.119 219.08 308.024 155.053 387.657 155.102Z" fill="#0F52BA"/>
<path d="M89.1818 369.821C89.1818 362.765 88.917 355.692 89.248 348.653C89.7279 338.346 96.7943 330.963 107.22 330.637C121.733 330.196 136.28 330.228 150.81 330.604C160.739 330.865 168.236 337.399 168.699 347.15C169.411 362.356 169.378 377.644 168.666 392.851C168.252 402.03 161.302 408.661 151.985 409.037C136.793 409.658 121.551 409.69 106.36 409.037C96.2151 408.596 89.8438 401.083 89.1818 390.989C89.1487 390.531 89.1156 390.074 89.1156 389.617C89.1156 383.018 89.1156 376.403 89.1156 369.804C89.1487 369.804 89.1653 369.804 89.1984 369.804L89.1818 369.821Z" fill="#0F52BA"/>
</g>
<defs>
<clipPath id="clip0_136_76">
<rect width="700" height="700" fill="white"/>
</clipPath>
</defs>
</svg>
