<svg width="700" height="700" viewBox="0 0 700 700" fill="none" xmlns="http://www.w3.org/2000/svg">
<g clip-path="url(#clip0_133_68)">
<path d="M700 350.337C699.711 544.053 543.5 700.096 349.952 700.024C155.802 699.927 -0.794946 542.873 -3.88129e-05 349.036C0.794868 155.103 157.103 -0.506085 350.626 -0.000235036C544.439 0.505615 700.289 156.789 700 350.337ZM246.277 324.346C257.429 322.371 267.908 319.311 278.482 318.878C302.306 317.914 311.122 327.164 308.207 351.011C306.28 366.837 301.944 382.398 298.162 397.959C290.478 429.466 280.193 460.516 275.11 492.409C268.149 536.104 292.622 562.168 337.257 564.336C363.441 565.612 386.831 556.531 410.437 547.378C424.697 541.861 428.142 535.863 426.142 519.315C420.747 520.832 415.423 522.711 409.955 523.747C404.078 524.855 398.056 525.771 392.106 525.674C370.571 525.385 361.803 517.075 364.621 495.998C367.416 475.041 373.317 454.518 377.894 433.802C384.783 402.608 393.937 371.679 397.983 340.124C401.862 309.941 383.266 289.153 353.661 282.36C323.383 275.423 296.091 285.95 268.028 294.597C252.251 299.463 246.036 308.592 246.325 324.346H246.277ZM380.712 234.425C410.678 234.594 434.429 212.577 434.429 184.635C434.429 157.102 411.352 135.158 381.989 134.749C352.072 134.339 327.959 156.187 327.67 183.985C327.381 212.047 350.747 234.281 380.712 234.449V234.425Z" fill="#0F52BA"/>
<path d="M246.277 324.346C245.988 308.569 252.202 299.439 267.98 294.598C296.043 285.95 323.335 275.423 353.613 282.361C383.217 289.154 401.813 309.942 397.935 340.124C393.889 371.704 384.735 402.609 377.846 433.803C373.269 454.518 367.368 475.041 364.573 495.998C361.755 517.099 370.523 525.386 392.058 525.675C398.008 525.747 404.03 524.832 409.907 523.748C415.375 522.712 420.699 520.833 426.094 519.315C428.094 535.864 424.649 541.862 410.389 547.378C386.807 556.507 363.417 565.613 337.209 564.336C292.574 562.144 268.101 536.105 275.062 492.409C280.145 460.516 290.454 429.467 298.114 397.96C301.896 382.399 306.232 366.838 308.159 351.012C311.074 327.141 302.281 317.891 278.434 318.878C267.86 319.312 257.381 322.371 246.229 324.346H246.277Z" fill="#FDFBFB"/>
<path d="M380.712 234.426C350.747 234.257 327.381 212.024 327.67 183.961C327.959 156.163 352.072 134.315 381.989 134.725C411.352 135.134 434.429 157.079 434.429 184.611C434.429 212.554 410.678 234.57 380.712 234.401V234.426Z" fill="#FDFBFB"/>
</g>
<defs>
<clipPath id="clip0_133_68">
<rect width="700" height="700" fill="white"/>
</clipPath>
</defs>
</svg>
