<svg width="700" height="700" viewBox="0 0 700 700" fill="none" xmlns="http://www.w3.org/2000/svg">
<g clip-path="url(#clip0_133_69)">
<path d="M0 349.88C0 156.506 156.386 0 349.639 0C543.855 0 700.121 156.386 700 350.723C700 544.337 542.892 700.121 348.072 699.88C156.024 699.759 0 543.012 0 349.88ZM350.482 647.952C513.735 648.072 647.59 514.94 647.952 351.928C648.313 187.229 515.663 52.4096 352.651 52.0482C184.458 51.6868 52.1687 182.892 52.0482 350.361C52.0482 515.904 184.217 647.711 350.482 647.952Z" fill="#0F52BA"/>
<path d="M350.482 647.952C184.217 647.711 51.9277 515.904 52.0482 350.361C52.0482 182.892 184.337 51.5663 352.651 52.0482C515.663 52.4096 648.313 187.229 647.952 351.928C647.59 514.94 513.855 648.193 350.482 647.952ZM350.602 624.819C501.446 625.06 624.458 502.53 624.699 351.807C624.819 274.699 596.506 209.157 542.892 154.699C482.048 93.1325 406.506 68.3133 321.687 76.2651C187.229 88.7952 74.4578 202.651 74.9397 349.277C75.4217 503.374 196.024 624.578 350.602 624.819Z" fill="white"/>
<path d="M350.602 624.819C196.024 624.578 75.4217 503.373 74.9398 349.277C74.4578 202.651 187.229 88.9156 321.807 76.265C406.627 68.3132 482.169 93.1325 543.012 154.699C596.747 209.036 625.06 274.699 624.819 351.807C624.458 502.53 501.446 625.06 350.723 624.819H350.602ZM418.916 335.181C458.072 319.157 474.458 321.084 488.193 343.494C475.06 355.181 458.313 354.819 442.289 356.867C403.012 361.807 391.446 351.807 390.362 312.169C389.518 284.699 388.916 257.229 387.108 229.88C386.386 218.072 383.012 206.386 380.843 194.699C378.554 194.699 376.386 194.699 374.096 194.699C371.807 205.542 368.434 216.386 367.59 227.349C361.566 307.47 324.94 364.578 246.627 391.205C244.94 391.807 243.614 393.614 241.325 395.663C270.723 398.313 296.747 393.494 319.639 376.867C357.349 349.398 367.108 307.831 375.301 265.301C376.265 275.663 374.94 286.024 376.627 295.783C380.482 317.349 383.976 339.398 391.205 359.88C397.831 378.434 409.759 383.012 429.277 379.277C447.229 375.904 464.819 371.566 482.651 367.711C496.747 364.699 510.723 360.12 524.819 359.639C537.711 359.157 546.988 356.747 552.169 344.096C554.096 339.398 557.349 335.422 561.446 328.795C532.892 334.337 512.651 322.53 491.446 308.554C458.193 286.506 433.615 296.145 418.916 335.301V335.181ZM156.265 302.53C154.94 302.048 153.735 301.566 152.41 301.205C147.349 313.855 140.843 326.024 137.47 339.036C130.121 367.229 149.639 393.374 178.916 396.386C228.554 401.325 262.048 368.313 258.916 318.795C256.747 285.663 253.494 252.289 256.024 219.398C257.59 198.675 250.723 183.012 243.133 165.663C232.41 177.349 230.602 189.277 233.012 204.458C238.795 240.964 242.41 277.711 245.663 314.578C249.036 351.687 227.711 366.506 192.289 369.639C162.53 372.169 146.024 350.843 152.53 321.566C153.976 315.301 155.06 308.916 156.265 302.651V302.53ZM328.675 506.506C318.916 478.072 310.602 453.133 301.687 428.434C300.723 425.783 296.386 423.012 293.615 422.892C290.602 422.892 285.542 425.06 284.699 427.59C275.904 452.289 267.711 477.349 258.916 503.855C278.554 507.108 272.289 487.711 280.361 483.012C295.06 482.771 311.566 478.434 313.976 501.084C314.217 502.892 321.446 503.976 328.675 506.506ZM452.289 505.542L454.94 502.289C446.506 477.47 438.193 452.651 429.277 427.952C428.434 425.422 423.615 423.012 420.723 423.012C417.831 423.012 413.374 425.783 412.41 428.313C403.615 453.012 395.301 477.831 386.627 503.373C406.386 508.072 399.759 488.795 408.313 483.012C420.964 483.976 438.193 476.265 441.205 499.759C441.566 502.169 448.313 503.614 452.169 505.542H452.289ZM201.205 456.024C198.876 434.177 194.538 423.735 188.193 424.699C188.193 448.554 187.952 472.651 188.554 496.627C188.554 499.759 193.374 502.771 196.024 505.783C197.47 504.819 198.916 503.976 200.361 503.012V468.434H237.108C237.108 478.675 236.747 488.193 237.349 497.711C237.47 500.12 240.602 502.289 242.289 504.578C244.458 502.771 248.554 500.964 248.554 499.036C249.036 473.735 248.795 448.313 248.795 419.639C228.795 428.554 242.892 446.265 234.458 455.904H201.084L201.205 456.024ZM263.253 221.084C263.253 227.831 262.41 233.735 263.494 239.277C264.578 244.578 266.506 252.289 270.361 254.217C291.566 264.337 303.976 282.289 315.663 301.205C317.952 304.819 320.121 308.554 323.494 314.096C325.542 265.422 307.349 237.59 263.253 221.205V221.084ZM336.988 504.096C351.446 504.096 363.855 504.337 376.265 503.855C378.795 503.855 381.084 500.723 383.494 499.157C381.205 497.47 378.916 494.578 376.506 494.458C368.072 493.855 359.518 494.217 349.759 494.217V423.614C348.434 422.771 347.108 421.928 345.663 421.084C342.771 424.217 337.47 427.349 337.349 430.602C336.627 454.578 336.988 478.434 336.988 503.976V504.096ZM476.627 494.217V419.759C471.325 423.494 465.904 425.542 465.904 427.59C465.301 452.892 465.542 478.193 465.542 503.976C479.518 503.976 490.964 504.337 502.53 503.735C505.542 503.614 508.434 500.843 511.446 499.277C508.193 497.59 505.181 494.699 501.807 494.337C494.337 493.614 486.627 494.096 476.627 494.096V494.217Z" fill="#0F52BA"/>
<path d="M418.916 335.181C433.614 296.024 458.072 286.386 491.446 308.434C512.53 322.41 532.892 334.217 561.446 328.675C557.349 335.301 553.976 339.398 552.169 343.976C546.988 356.627 537.711 359.036 524.819 359.518C510.723 360 496.627 364.699 482.651 367.59C464.819 371.446 447.108 375.783 429.277 379.157C409.759 382.892 397.831 378.313 391.205 359.759C383.976 339.157 380.482 317.229 376.627 295.663C374.94 285.904 376.386 275.542 375.301 265.181C367.229 307.711 357.349 349.398 319.639 376.747C296.747 393.374 270.723 398.193 241.325 395.542C243.735 393.494 244.94 391.687 246.627 391.084C324.94 364.458 361.566 307.229 367.59 227.229C368.434 216.265 371.928 205.542 374.096 194.578C376.386 194.578 378.554 194.578 380.843 194.578C383.012 206.265 386.386 217.952 387.108 229.759C388.916 257.108 389.518 284.578 390.361 312.048C391.446 351.566 403.012 361.566 442.289 356.747C458.313 354.699 474.94 355.181 488.193 343.374C474.458 321.084 458.072 319.036 418.916 335.06V335.181Z" fill="white"/>
<path d="M156.265 302.53C155.06 308.916 153.976 315.181 152.53 321.446C145.904 350.603 162.53 372.048 192.289 369.518C227.711 366.386 249.036 351.687 245.663 314.458C242.289 277.711 238.795 240.843 233.012 204.337C230.602 189.157 232.41 177.349 243.133 165.542C250.723 182.892 257.59 198.554 256.024 219.277C253.494 252.169 256.747 285.542 258.916 318.675C262.169 368.072 228.554 401.205 178.916 396.265C149.759 393.374 130.12 367.229 137.47 338.916C140.843 325.904 147.349 313.615 152.41 301.084C153.735 301.566 154.94 302.048 156.265 302.41V302.53Z" fill="white"/>
<path d="M328.675 506.506C321.446 503.855 314.096 502.892 313.976 501.084C311.446 478.554 295.06 482.892 280.361 483.012C272.289 487.711 278.554 507.229 258.916 503.855C267.831 477.229 275.904 452.289 284.699 427.59C285.542 425.181 290.602 422.771 293.614 422.892C296.506 422.892 300.843 425.783 301.687 428.434C310.602 453.133 318.916 477.952 328.675 506.506ZM302.651 468.313C299.639 458.795 296.867 450 293.253 438.554C289.398 449.88 286.386 458.554 283.133 468.313H302.651Z" fill="white"/>
<path d="M452.289 505.542C448.434 503.615 441.566 502.169 441.325 499.759C438.313 476.386 421.084 483.976 408.434 483.012C399.88 488.795 406.506 508.072 386.747 503.374C395.422 477.831 403.615 452.892 412.53 428.313C413.494 425.783 417.952 423.012 420.843 423.012C423.735 423.012 428.554 425.422 429.398 427.952C438.313 452.651 446.627 477.47 455.06 502.289L452.41 505.542H452.289ZM420.723 438.434C417.108 449.518 414.096 458.554 410.964 468.193H430.723C427.59 458.916 424.819 450.482 420.843 438.434H420.723Z" fill="white"/>
<path d="M201.205 456.024H234.578C242.892 446.386 228.795 428.675 248.916 419.759C248.916 448.434 249.036 473.856 248.675 499.157C248.675 500.964 244.578 502.771 242.41 504.699C240.723 502.41 237.59 500.121 237.47 497.832C236.867 488.313 237.229 478.795 237.229 468.554H200.482V503.133C199.036 504.097 197.59 504.94 196.145 505.904C193.494 502.892 188.795 499.88 188.675 496.747C188.072 472.771 188.313 448.795 188.313 424.819C194.659 423.856 198.996 434.297 201.325 456.145L201.205 456.024Z" fill="white"/>
<path d="M263.253 221.084C307.349 237.59 325.663 265.301 323.494 313.976C320.121 308.313 317.831 304.699 315.663 301.084C304.096 282.169 291.566 264.217 270.361 254.096C266.506 252.289 264.578 244.578 263.494 239.157C262.289 233.614 263.253 227.711 263.253 220.964V221.084Z" fill="white"/>
<path d="M336.988 504.096C336.988 478.554 336.627 454.578 337.349 430.723C337.349 427.47 342.771 424.337 345.663 421.205C346.988 422.048 348.313 422.891 349.759 423.735V494.337C359.518 494.337 368.072 493.976 376.506 494.578C378.916 494.699 381.205 497.59 383.494 499.277C381.084 500.964 378.675 503.976 376.265 503.976C363.855 504.458 351.446 504.217 336.988 504.217V504.096Z" fill="white"/>
<path d="M476.627 494.217C486.627 494.217 494.217 493.735 501.807 494.458C505.181 494.819 508.313 497.711 511.446 499.397C508.434 500.964 505.542 503.735 502.53 503.855C490.964 504.337 479.398 504.096 465.542 504.096C465.542 478.193 465.301 452.891 465.904 427.711C465.904 425.663 471.325 423.614 476.627 419.879V494.337V494.217Z" fill="white"/>
<path d="M302.651 468.313H283.133C286.386 458.554 289.398 449.88 293.253 438.554C296.867 450 299.639 458.795 302.651 468.313Z" fill="#0F52BA"/>
<path d="M420.723 438.434C424.699 450.482 427.59 458.916 430.602 468.193H410.843C413.976 458.554 416.988 449.518 420.602 438.434H420.723Z" fill="#0F52BA"/>
</g>
<defs>
<clipPath id="clip0_133_69">
<rect width="700" height="700" fill="white"/>
</clipPath>
</defs>
</svg>
