<svg width="30" height="30" viewBox="0 0 30 30" fill="none" xmlns="http://www.w3.org/2000/svg">
<path d="M29.9329 1.2857C30.0722 0.937502 29.9906 0.539798 29.7254 0.274614C29.4602 0.00943103 29.0625 -0.0722008 28.7143 0.0670803L1.4385 10.9774L1.43577 10.9785L0.589333 11.3171C0.262757 11.4477 0.0367771 11.7501 0.00407396 12.1003C-0.0286292 12.4506 0.137448 12.7896 0.434192 12.9784L1.20223 13.4672L1.20578 13.4695L10.5709 19.4291L16.5305 28.7942L16.5334 28.7987L17.0216 29.5658C17.2104 29.8626 17.5494 30.0286 17.8997 29.9959C18.2499 29.9632 18.5523 29.7372 18.6829 29.4107L29.9329 1.2857ZM26.4957 4.83005L12.4447 18.8811L12.0409 18.2467C11.9673 18.1309 11.8691 18.0327 11.7533 17.9591L11.1188 17.5553L25.1699 3.50429L27.3796 2.62039L26.4957 4.83005Z" fill="white"/>
</svg>
