<svg width="60" height="60" viewBox="0 0 60 60" fill="none" xmlns="http://www.w3.org/2000/svg">
<path d="M30.0013 0C46.568 0 60 13.432 60 30.0013C60 46.5706 46.568 60 30.0013 60C13.4346 60 0 46.568 0 30.0013C0 13.4346 13.432 0 30.0013 0ZM58.4314 30.0013C58.4314 14.2994 45.7032 1.57123 30.0013 1.57123C14.2994 1.57123 1.57123 14.2994 1.57123 30.0013C1.57123 45.7032 14.2994 58.4288 30.0013 58.4288C45.7032 58.4288 58.4314 45.7006 58.4314 30.0013Z" fill="#068ECB"/>
<path d="M30.0014 1.57129C45.7032 1.57129 58.4314 14.2995 58.4314 30.0014C58.4314 45.7032 45.7032 58.4288 30.0014 58.4288C14.2995 58.4288 1.57129 45.7006 1.57129 30.0014C1.57129 14.3021 14.2995 1.57129 30.0014 1.57129Z" fill="#0F52BA"/>
<path d="M48.5301 24.5347V36.9097C48.5301 40.7845 45.3902 43.9244 41.5154 43.9244H19.0352C14.5968 43.9244 10.9999 40.3274 10.9999 35.889V21.9921C10.9999 21.6909 11.0596 21.3948 11.1713 21.1169L12.984 16.6967C13.0905 16.4344 13.4619 16.4344 13.5684 16.6967L15.3785 21.1169C15.4928 21.3948 15.5499 21.6909 15.5499 21.9921V34.9281C15.5499 37.1512 17.3523 38.9536 19.5754 38.9536H40.9233C42.5906 38.9536 43.9411 37.6031 43.9411 35.9358V27.6278C43.9411 27.3707 44.0631 27.1291 44.2709 26.9759L47.9665 24.2568C48.2002 24.0854 48.5275 24.2516 48.5275 24.5399L48.5301 24.5347Z" fill="white"/>
<path d="M28.2432 30.5831C28.2432 30.7727 28.3991 30.9285 28.5886 30.9285H32.5076C32.6972 30.9285 32.853 30.7727 32.853 30.5831V28.2302H33.1595C33.4426 26.4382 34.6658 24.8696 36.5201 24.8696C38.3744 24.8696 39.6547 26.4486 39.8807 28.2302H40.1897V30.9285H40.4988V34.6112C40.4988 34.9332 40.2391 35.1929 39.917 35.1929H19.9949C19.6729 35.1929 19.4132 34.9332 19.4132 34.6112V31.5103C19.4132 31.1882 19.6729 30.9285 19.9949 30.9285H23.3114C23.501 30.9285 23.6568 30.7727 23.6568 30.5831V19.6625C23.6568 19.3664 23.7139 19.0729 23.8256 18.7976L25.6566 14.2709C25.763 14.0086 26.137 14.0086 26.2435 14.2709L28.0744 18.7976C28.1861 19.0729 28.2432 19.3664 28.2432 19.6625V30.5831Z" fill="white"/>
</svg>
