<svg width="130" height="130" viewBox="0 0 130 130" fill="none" xmlns="http://www.w3.org/2000/svg">
<path d="M65 121.875C33.5888 121.875 8.125 96.4112 8.125 65C8.125 33.5888 33.5888 8.125 65 8.125C96.4112 8.125 121.875 33.5888 121.875 65C121.875 96.4112 96.4112 121.875 65 121.875ZM65 130C100.899 130 130 100.899 130 65C130 29.1015 100.899 0 65 0C29.1015 0 0 29.1015 0 65C0 100.899 29.1015 130 65 130Z" fill="#03569C"/>
<path d="M89.1285 40.3786C89.071 40.436 89.0171 40.4969 88.9669 40.5608L60.7538 76.511L43.744 59.5012C41.3642 57.1214 37.5059 57.1214 35.1261 59.5012C32.7464 61.8809 32.7464 65.7393 35.1261 68.1191L56.6285 89.6214C59.0083 92.0012 62.8666 92.0012 65.2464 89.6214C65.2994 89.5684 65.3494 89.5126 65.3962 89.454L97.8329 48.9082C100.126 46.5223 100.097 42.7291 97.7464 40.3786C95.3666 37.9988 91.5083 37.9988 89.1285 40.3786Z" fill="#03569C"/>
</svg>
