<svg width="30" height="30" viewBox="0 0 30 30" fill="none" xmlns="http://www.w3.org/2000/svg">
<path d="M0 7.5C0 5.42893 1.67893 3.75 3.75 3.75H26.25C28.3211 3.75 30 5.42893 30 7.5V22.5C30 24.5711 28.3211 26.25 26.25 26.25H3.75C1.67893 26.25 0 24.5711 0 22.5V7.5ZM16.875 10.3125C16.875 10.8303 17.2947 11.25 17.8125 11.25H25.3125C25.8303 11.25 26.25 10.8303 26.25 10.3125C26.25 9.79473 25.8303 9.375 25.3125 9.375H17.8125C17.2947 9.375 16.875 9.79473 16.875 10.3125ZM16.875 15C16.875 15.5178 17.2947 15.9375 17.8125 15.9375H25.3125C25.8303 15.9375 26.25 15.5178 26.25 15C26.25 14.4822 25.8303 14.0625 25.3125 14.0625H17.8125C17.2947 14.0625 16.875 14.4822 16.875 15ZM18.75 19.6875C18.75 20.2053 19.1697 20.625 19.6875 20.625H25.3125C25.8303 20.625 26.25 20.2053 26.25 19.6875C26.25 19.1697 25.8303 18.75 25.3125 18.75H19.6875C19.1697 18.75 18.75 19.1697 18.75 19.6875ZM16.875 23.4375C16.875 19.8131 13.5171 16.875 9.37497 16.875C5.46314 16.875 2.25079 19.4955 1.90567 22.8397C2.06551 23.7131 2.83044 24.375 3.74997 24.375H16.799C16.8491 24.0688 16.875 23.7558 16.875 23.4375ZM13.125 11.25C13.125 9.17893 11.446 7.5 9.37497 7.5C7.3039 7.5 5.62497 9.17893 5.62497 11.25C5.62497 13.3211 7.3039 15 9.37497 15C11.446 15 13.125 13.3211 13.125 11.25Z" fill="#0F52BA"/>
</svg>
