<svg width="30" height="30" viewBox="0 0 30 30" fill="none" xmlns="http://www.w3.org/2000/svg">
<path d="M24.1004 0.274587C23.7343 -0.0915292 23.1407 -0.0915292 22.7746 0.274587L19.6875 3.36169L26.6383 10.3125L29.7254 7.22541C30.0916 6.8593 30.0916 6.2657 29.7254 5.89959L24.1004 0.274587Z" fill="#0F52BA"/>
<path d="M25.3125 11.6383L18.3617 4.68751L6.1742 16.875H6.5625C7.08027 16.875 7.5 17.2947 7.5 17.8125V18.75H8.4375C8.95527 18.75 9.375 19.1697 9.375 19.6875V20.625H10.3125C10.8303 20.625 11.25 21.0447 11.25 21.5625V22.5H12.1875C12.7053 22.5 13.125 22.9197 13.125 23.4375V23.8259L25.3125 11.6383Z" fill="#0F52BA"/>
<path d="M11.3094 25.6415C11.271 25.5391 11.25 25.4283 11.25 25.3125V24.375H10.3125C9.79473 24.375 9.375 23.9553 9.375 23.4375V22.5H8.4375C7.91973 22.5 7.5 22.0803 7.5 21.5625V20.625H6.5625C6.04473 20.625 5.625 20.2053 5.625 19.6875V18.75H4.6875C4.57175 18.75 4.4609 18.729 4.35854 18.6907L4.02461 19.0246C3.93484 19.1144 3.86423 19.2214 3.81708 19.3393L0.0670804 28.7143C-0.0722009 29.0625 0.00943104 29.4602 0.274615 29.7254C0.539798 29.9906 0.937503 30.0722 1.28571 29.9329L10.6607 26.1829C10.7786 26.1358 10.8857 26.0652 10.9754 25.9754L11.3094 25.6415Z" fill="#0F52BA"/>
</svg>
