<svg width="30" height="30" viewBox="0 0 30 30" fill="none" xmlns="http://www.w3.org/2000/svg">
<path d="M0 2.8125C0 1.2592 1.2592 0 2.8125 0H5.625V10.3125C5.625 11.8658 6.8842 13.125 8.4375 13.125H21.5625C23.1158 13.125 24.375 11.8658 24.375 10.3125V0H24.5359C25.2818 0 25.9971 0.296316 26.5246 0.823762L29.1762 3.47541C29.7037 4.00286 30 4.71823 30 5.46415V27.1875C30 28.7408 28.7408 30 27.1875 30H26.25V19.6875C26.25 18.1342 24.9908 16.875 23.4375 16.875H6.5625C5.0092 16.875 3.75 18.1342 3.75 19.6875V30H2.8125C1.2592 30 0 28.7408 0 27.1875V2.8125Z" fill="#03569C"/>
<path d="M5.625 30H24.375V19.6875C24.375 19.1697 23.9553 18.75 23.4375 18.75H6.5625C6.04473 18.75 5.625 19.1697 5.625 19.6875V30Z" fill="#03569C"/>
<path d="M22.5 0H7.5V10.3125C7.5 10.8303 7.91973 11.25 8.4375 11.25H21.5625C22.0803 11.25 22.5 10.8303 22.5 10.3125V0ZM16.875 1.875H20.625V9.375H16.875V1.875Z" fill="#03569C"/>
</svg>
