<svg width="30" height="30" viewBox="0 0 30 30" fill="none" xmlns="http://www.w3.org/2000/svg">
<path d="M20.625 2.8125V4.6875H27.1875C27.7053 4.6875 28.125 5.10723 28.125 5.625C28.125 6.14277 27.7053 6.5625 27.1875 6.5625H26.178L24.5791 26.549C24.4232 28.4979 22.7961 30 20.841 30H9.15899C7.20388 30 5.57684 28.4979 5.42093 26.549L3.822 6.5625H2.8125C2.29473 6.5625 1.875 6.14277 1.875 5.625C1.875 5.10723 2.29473 4.6875 2.8125 4.6875H9.375V2.8125C9.375 1.2592 10.6342 0 12.1875 0H17.8125C19.3658 0 20.625 1.2592 20.625 2.8125ZM11.25 2.8125V4.6875H18.75V2.8125C18.75 2.29473 18.3303 1.875 17.8125 1.875H12.1875C11.6697 1.875 11.25 2.29473 11.25 2.8125ZM8.43748 9.42844L9.37498 25.3659C9.40538 25.8828 9.84904 26.2772 10.3659 26.2468C10.8828 26.2164 11.2771 25.7727 11.2467 25.2558L10.3092 9.31833C10.2788 8.80146 9.83518 8.4071 9.31831 8.4375C8.80143 8.46791 8.40707 8.91157 8.43748 9.42844ZM20.6817 8.43912C20.1648 8.40871 19.7212 8.80307 19.6907 9.31995L18.7532 25.2574C18.7228 25.7743 19.1172 26.218 19.6341 26.2484C20.151 26.2788 20.5946 25.8844 20.625 25.3675L21.5625 9.43005C21.5929 8.91318 21.1986 8.46952 20.6817 8.43912ZM15 8.4375C14.4822 8.4375 14.0625 8.85723 14.0625 9.375V25.3125C14.0625 25.8303 14.4822 26.25 15 26.25C15.5178 26.25 15.9375 25.8303 15.9375 25.3125V9.375C15.9375 8.85723 15.5178 8.4375 15 8.4375Z" fill="#D1001F"/>
</svg>
