<svg width="60" height="60" viewBox="0 0 60 60" fill="none" xmlns="http://www.w3.org/2000/svg">
<path d="M41.25 22.5C41.25 28.7132 36.2132 33.75 30 33.75C23.7868 33.75 18.75 28.7132 18.75 22.5C18.75 16.2868 23.7868 11.25 30 11.25C36.2132 11.25 41.25 16.2868 41.25 22.5Z" fill="#0F52BA"/>
<path fill-rule="evenodd" clip-rule="evenodd" d="M0 30C0 13.4315 13.4315 0 30 0C46.5685 0 60 13.4315 60 30C60 46.5685 46.5685 60 30 60C13.4315 60 0 46.5685 0 30ZM30 3.75C15.5025 3.75 3.75 15.5025 3.75 30C3.75 36.2004 5.89971 41.8986 9.49448 46.3901C12.161 42.0947 18.0174 37.5 30 37.5C41.9827 37.5 47.839 42.0947 50.5056 46.3901C54.1003 41.8986 56.25 36.2004 56.25 30C56.25 15.5025 44.4975 3.75 30 3.75Z" fill="#0F52BA"/>
</svg>
