<svg width="30" height="30" viewBox="0 0 30 30" fill="none" xmlns="http://www.w3.org/2000/svg">
<path d="M17.4242 0H7.5C5.42893 0 3.75 1.67893 3.75 3.75V26.25C3.75 28.3211 5.42893 30 7.5 30H22.5C24.5711 30 26.25 28.3211 26.25 26.25V8.82582C26.25 8.32855 26.0525 7.85163 25.7008 7.5L18.75 0.549175C18.3984 0.197544 17.9215 0 17.4242 0ZM17.8125 6.5625V2.8125L23.4375 8.4375H19.6875C18.652 8.4375 17.8125 7.59803 17.8125 6.5625ZM12.8504 13.3996L15 15.5492L17.1496 13.3996C17.5157 13.0335 18.1093 13.0335 18.4754 13.3996C18.8415 13.7657 18.8415 14.3593 18.4754 14.7254L16.3258 16.875L18.4754 19.0246C18.8415 19.3907 18.8415 19.9843 18.4754 20.3504C18.1093 20.7165 17.5157 20.7165 17.1496 20.3504L15 18.2008L12.8504 20.3504C12.4843 20.7165 11.8907 20.7165 11.5246 20.3504C11.1585 19.9843 11.1585 19.3907 11.5246 19.0246L13.6742 16.875L11.5246 14.7254C11.1585 14.3593 11.1585 13.7657 11.5246 13.3996C11.8907 13.0335 12.4843 13.0335 12.8504 13.3996Z" fill="#0F52BA"/>
</svg>
