<svg width="30" height="30" viewBox="0 0 30 30" fill="none" xmlns="http://www.w3.org/2000/svg">
<path d="M17.6337 1.96947C16.8597 -0.656492 13.1403 -0.656491 12.3663 1.96947L12.1786 2.60631C11.684 4.28419 9.76754 5.07801 8.2314 4.24127L7.64837 3.9237C5.24423 2.61416 2.61416 5.24423 3.9237 7.64837L4.24127 8.2314C5.07801 9.76754 4.28419 11.684 2.60631 12.1786L1.96947 12.3663C-0.656492 13.1403 -0.656491 16.8597 1.96947 17.6337L2.60631 17.8214C4.28419 18.316 5.07801 20.2325 4.24127 21.7686L3.9237 22.3516C2.61416 24.7558 5.24423 27.3858 7.64836 26.0763L8.2314 25.7587C9.76754 24.922 11.684 25.7158 12.1786 27.3937L12.3663 28.0305C13.1403 30.6565 16.8597 30.6565 17.6337 28.0305L17.8214 27.3937C18.316 25.7158 20.2325 24.922 21.7686 25.7587L22.3516 26.0763C24.7558 27.3858 27.3858 24.7558 26.0763 22.3516L25.7587 21.7686C24.922 20.2325 25.7158 18.316 27.3937 17.8214L28.0305 17.6337C30.6565 16.8597 30.6565 13.1403 28.0305 12.3663L27.3937 12.1786C25.7158 11.684 24.922 9.76754 25.7587 8.2314L26.0763 7.64836C27.3858 5.24423 24.7558 2.61416 22.3516 3.9237L21.7686 4.24127C20.2325 5.07801 18.316 4.28419 17.8214 2.60631L17.6337 1.96947ZM15 20.4915C11.9671 20.4915 9.50847 18.0329 9.50847 15C9.50847 11.9671 11.9671 9.50847 15 9.50847C18.0329 9.50847 20.4915 11.9671 20.4915 15C20.4915 18.0329 18.0329 20.4915 15 20.4915Z" fill="#0F52BA"/>
</svg>
