<svg width="30" height="30" viewBox="0 0 30 30" fill="none" xmlns="http://www.w3.org/2000/svg">
<path d="M17.4242 0H7.5C5.42893 0 3.75 1.67893 3.75 3.75V26.25C3.75 28.3211 5.42893 30 7.5 30H22.5C24.5711 30 26.25 28.3211 26.25 26.25V8.82582C26.25 8.32855 26.0525 7.85163 25.7008 7.5L18.75 0.549175C18.3984 0.197544 17.9215 0 17.4242 0ZM17.8125 6.5625V2.8125L23.4375 8.4375H19.6875C18.652 8.4375 17.8125 7.59803 17.8125 6.5625ZM8.4375 16.875C7.91973 16.875 7.5 16.4553 7.5 15.9375C7.5 15.4197 7.91973 15 8.4375 15H21.5625C22.0803 15 22.5 15.4197 22.5 15.9375C22.5 16.4553 22.0803 16.875 21.5625 16.875H8.4375ZM7.5 19.6875C7.5 19.1697 7.91973 18.75 8.4375 18.75H21.5625C22.0803 18.75 22.5 19.1697 22.5 19.6875C22.5 20.2053 22.0803 20.625 21.5625 20.625H8.4375C7.91973 20.625 7.5 20.2053 7.5 19.6875ZM8.4375 24.375C7.91973 24.375 7.5 23.9553 7.5 23.4375C7.5 22.9197 7.91973 22.5 8.4375 22.5H15.9375C16.4553 22.5 16.875 22.9197 16.875 23.4375C16.875 23.9553 16.4553 24.375 15.9375 24.375H8.4375Z" fill="#0F52BA"/>
</svg>
