<svg width="30" height="30" viewBox="0 0 30 30" fill="none" xmlns="http://www.w3.org/2000/svg">
<path d="M3.75 0C1.67893 0 0 1.67893 0 3.75V26.25C0 28.3211 1.67893 30 3.75 30H26.25C28.3211 30 30 28.3211 30 26.25V3.75C30 1.67893 28.3211 0 26.25 0H3.75ZM15.9375 8.4375V14.0625H21.5625C22.0803 14.0625 22.5 14.4822 22.5 15C22.5 15.5178 22.0803 15.9375 21.5625 15.9375H15.9375V21.5625C15.9375 22.0803 15.5178 22.5 15 22.5C14.4822 22.5 14.0625 22.0803 14.0625 21.5625V15.9375H8.4375C7.91973 15.9375 7.5 15.5178 7.5 15C7.5 14.4822 7.91973 14.0625 8.4375 14.0625H14.0625V8.4375C14.0625 7.91973 14.4822 7.5 15 7.5C15.5178 7.5 15.9375 7.91973 15.9375 8.4375Z" fill="#0F52BA"/>
</svg>
