<svg width="130" height="130" viewBox="0 0 130 130" fill="none" xmlns="http://www.w3.org/2000/svg">
<path d="M65 121.875C33.5888 121.875 8.125 96.4112 8.125 65C8.125 33.5888 33.5888 8.125 65 8.125C96.4112 8.125 121.875 33.5888 121.875 65C121.875 96.4112 96.4112 121.875 65 121.875ZM65 130C100.899 130 130 100.899 130 65C130 29.1015 100.899 0 65 0C29.1015 0 0 29.1015 0 65C0 100.899 29.1015 130 65 130Z" fill="#D1001F"/>
<path d="M37.7524 37.7524C39.3389 36.1659 41.9111 36.1659 43.4976 37.7524L65 59.2548L86.5024 37.7524C88.0889 36.1659 90.6611 36.1659 92.2476 37.7524C93.8341 39.3389 93.8341 41.9111 92.2476 43.4976L70.7452 65L92.2476 86.5024C93.8341 88.0889 93.8341 90.6611 92.2476 92.2476C90.6611 93.8341 88.0889 93.8341 86.5024 92.2476L65 70.7452L43.4976 92.2476C41.9111 93.8341 39.3389 93.8341 37.7524 92.2476C36.1659 90.6611 36.1659 88.0889 37.7524 86.5024L59.2548 65L37.7524 43.4976C36.1659 41.9111 36.1659 39.3389 37.7524 37.7524Z" fill="#D1001F"/>
</svg>
