<svg width="30" height="30" viewBox="0 0 30 30" fill="none" xmlns="http://www.w3.org/2000/svg">
<path d="M6.5625 21.5625C2.93813 21.5625 0 18.6244 0 15C0 11.3756 2.93813 8.4375 6.5625 8.4375C9.18037 8.4375 11.4402 9.97036 12.4935 12.1875H26.25L29.0625 15L26.25 17.8125L24.375 15.9375L22.5 17.8125L20.625 15.9375L18.75 17.8125L16.875 15.9375L15 17.8125H12.4935C11.4402 20.0296 9.18037 21.5625 6.5625 21.5625ZM4.6875 16.875C5.72303 16.875 6.5625 16.0355 6.5625 15C6.5625 13.9645 5.72303 13.125 4.6875 13.125C3.65197 13.125 2.8125 13.9645 2.8125 15C2.8125 16.0355 3.65197 16.875 4.6875 16.875Z" fill="#CCCCCC"/>
</svg>
