<svg width="30" height="30" viewBox="0 0 30 30" fill="none" xmlns="http://www.w3.org/2000/svg">
<path d="M20.2319 24.2094L17.2053 21.1828C16.5161 21.4287 15.7737 21.5626 15 21.5626C11.3756 21.5626 8.4375 18.6244 8.4375 15.0001C8.4375 14.2264 8.57138 13.484 8.81724 12.7948L4.95209 8.92961C1.76009 11.7732 0 15.0001 0 15.0001C0 15.0001 5.625 25.3126 15 25.3126C16.9039 25.3126 18.6531 24.8873 20.2319 24.2094Z" fill="#CCCCCC"/>
<path d="M9.76813 5.7907C11.347 5.11286 13.0962 4.68757 15 4.68757C24.375 4.68757 30 15.0001 30 15.0001C30 15.0001 28.2399 18.2269 25.0479 21.0705L21.1828 17.2053C21.4286 16.5161 21.5625 15.7737 21.5625 15.0001C21.5625 11.3757 18.6244 8.43757 15 8.43757C14.2263 8.43757 13.484 8.57145 12.7947 8.8173L9.76813 5.7907Z" fill="#CCCCCC"/>
<path d="M10.3591 14.3366C10.3284 14.5533 10.3125 14.7749 10.3125 15.0001C10.3125 17.5889 12.4112 19.6876 15 19.6876C15.2252 19.6876 15.4467 19.6717 15.6635 19.641L10.3591 14.3366Z" fill="#CCCCCC"/>
<path d="M19.6409 15.6635L14.3366 10.3592C14.5533 10.3285 14.7748 10.3126 15 10.3126C17.5888 10.3126 19.6875 12.4112 19.6875 15.0001C19.6875 15.2253 19.6716 15.4468 19.6409 15.6635Z" fill="#CCCCCC"/>
<path d="M25.5871 26.913L3.08709 4.41298L4.41291 3.08716L26.9129 25.5872L25.5871 26.913Z" fill="#CCCCCC"/>
</svg>
