<svg width="30" height="30" viewBox="0 0 30 30" fill="none" xmlns="http://www.w3.org/2000/svg">
<path d="M19.6875 15C19.6875 17.5888 17.5888 19.6875 15 19.6875C12.4112 19.6875 10.3125 17.5888 10.3125 15C10.3125 12.4112 12.4112 10.3125 15 10.3125C17.5888 10.3125 19.6875 12.4112 19.6875 15Z" fill="#CCCCCC"/>
<path d="M0 15C0 15 5.625 4.6875 15 4.6875C24.375 4.6875 30 15 30 15C30 15 24.375 25.3125 15 25.3125C5.625 25.3125 0 15 0 15ZM15 21.5625C18.6244 21.5625 21.5625 18.6244 21.5625 15C21.5625 11.3756 18.6244 8.4375 15 8.4375C11.3756 8.4375 8.4375 11.3756 8.4375 15C8.4375 18.6244 11.3756 21.5625 15 21.5625Z" fill="#CCCCCC"/>
</svg>
